<svg xmlns="http://www.w3.org/2000/svg" version="1.1" xmlns:xlink="http://www.w3.org/1999/xlink" xmlns:svgjs="http://svgjs.dev/svgjs" width="1440" height="560" preserveAspectRatio="none" viewBox="0 0 1440 560"><g mask="url(&quot;#SvgjsMask1021&quot;)" fill="none"><rect width="1440" height="560" x="0" y="0" fill="rgba(13, 57, 29, 1)"></rect><path d="M 0,127 C 57.6,152 172.8,267.8 288,252 C 403.2,236.2 460.8,60.2 576,48 C 691.2,35.8 748.8,178.6 864,191 C 979.2,203.4 1036.8,97 1152,110 C 1267.2,123 1382.4,226.8 1440,256L1440 560L0 560z" fill="rgba(6, 98, 40, 1)"></path><path d="M 0,330 C 96,352 288,446 480,440 C 672,434 768,288.4 960,300 C 1152,311.6 1344,458.4 1440,498L1440 560L0 560z" fill="rgba(8, 75, 34, 1)"></path></g><defs><mask id="SvgjsMask1021"><rect width="1440" height="560" fill="#ffffff"></rect></mask></defs></svg>